<?xml version="1.0" encoding="UTF-8"?>
<svg width="48px" height="48px" viewBox="0 0 48 48" version="1.1" xmlns="http://www.w3.org/2000/svg" xmlns:xlink="http://www.w3.org/1999/xlink">
    <title>Artboard</title>
    <g id="Artboard" stroke="none" stroke-width="1" fill="none" fill-rule="evenodd">
        <path d="M21.5,8.5 C28.6797017,8.5 34.5,14.3202983 34.5,21.5 C34.5,24.4964265 33.4862294,27.2560743 31.7829633,29.454668 L38.3033009,35.9748737 C38.8890873,36.5606602 38.8890873,37.5104076 38.3033009,38.0961941 C37.7541261,38.6453689 36.8850637,38.6796923 36.2959029,38.1991643 L36.1819805,38.0961941 L29.6861231,31.5994272 C27.4512355,33.4131554 24.6025408,34.5 21.5,34.5 C14.3202983,34.5 8.5,28.6797017 8.5,21.5 C8.5,14.3202983 14.3202983,8.5 21.5,8.5 Z M21.5,11.5 C15.9771525,11.5 11.5,15.9771525 11.5,21.5 C11.5,27.0228475 15.9771525,31.5 21.5,31.5 C27.0228475,31.5 31.5,27.0228475 31.5,21.5 C31.5,15.9771525 27.0228475,11.5 21.5,11.5 Z" id="Combined-Shape" fill="#000000" fill-rule="nonzero"></path>
    </g>
</svg>