<?xml version="1.0" encoding="UTF-8"?>
<svg width="64px" height="64px" viewBox="0 0 64 64" version="1.1" xmlns="http://www.w3.org/2000/svg" xmlns:xlink="http://www.w3.org/1999/xlink">
    <title>logo_basic</title>
    <g id="logo_basic" stroke="none" stroke-width="1" fill="none" fill-rule="evenodd">
        <g id="Group-14" fill="#000000">
            <path d="M54.3682474,0 L55,0.58533357 L55,58.2822372 L54.7157303,59.4477569 L53.8315038,60 L35.2631266,60 L34.5685394,59.7543952 L34,58.9877994 L34,57.5766749 L34.2528524,56.8405959 L34.7895961,56.3192372 L50.3892284,56.3192372 L50.9577678,55.8589121 L50.9577678,50.5526721 L50.5156546,49.7243074 L49.6628454,49.4176691 L35.04207,49.4176691 L34.2528524,49.1110308 L34.2528524,45.767423 L35.04207,45.3379823 L49.2839453,45.4299003 C50.7367112,45.123262 50.8631374,43.8349399 50.8631374,43.8349399 L50.8631374,43.8349399 L50.8631374,1.01477428 L50.9891851,0.462531176 L51.6209377,0 L54.3682474,0 Z M63.2727273,0 C63.6741818,0 64,0.327227524 64,0.73123469 L64,59.2687653 C64,59.6727725 63.6741818,60 63.2727273,60 L60.7272727,60 C60.3254545,60 60,59.6727725 60,59.2687653 L60,0.73123469 C60,0.327227524 60.3254545,0 60.7272727,0 L63.2727273,0 Z" id="key"></path>
            <path d="M16,60.3204315 C9.74772214,60.3204315 4.67920402,55.2519134 4.67920402,48.9996355 C4.67920402,42.7477221 9.74772214,37.679204 16,37.679204 C22.2522779,37.679204 27.320796,42.7477221 27.320796,48.9996355 C27.320796,55.2519134 22.2522779,60.3204315 16,60.3204315 M16,34 C7.7158685,34 1,40.715504 1,48.9996355 C1,57.2841315 7.7158685,64 16,64 C24.2841315,64 31,57.2841315 31,48.9996355 C31,40.715504 24.2841315,34 16,34" id="circle"></path>
            <path d="M0.430049576,10.0922139 C0.430049576,10.0922139 2.63540338,9.8847326 3.07029334,10.0922139 C3.5051833,10.2996953 3.69172428,10.8489523 3.69172428,10.8489523 L3.69172428,10.8489523 L3.69172428,23.9039333 C3.84698893,25.8604396 6.17670339,26.3642213 6.17670339,26.3642213 L6.17670339,26.3642213 L6.22168827,26.3641169 C6.23658279,26.3640824 6.25512561,26.3640396 6.27724142,26.3639887 L6.70931304,26.3630071 C9.18403254,26.3574426 19.8379264,26.3343363 29.2551428,26.3269954 L30.3786701,26.3261923 C30.5647345,26.3260718 30.7501535,26.3259581 30.9348518,26.3258515 L32.5756457,26.3250913 C32.7553422,26.3250297 32.9340921,26.3249761 33.11182,26.3249306 L35.6916761,26.3248946 C35.8573013,26.3249375 36.0215278,26.3249899 36.1842805,26.3250521 L37.6072247,26.3258827 C41.744467,26.3292088 44.6424821,26.3402402 44.8186126,26.3642213 C45.4709475,26.4530404 45.9680178,27.1053276 45.9992941,28.2908844 C46.0301981,29.4764412 45.0360575,29.9208918 45.0360575,29.9208918 C45.0360575,29.9208918 45.0196317,29.920963 44.9874225,29.9211011 L44.8440879,29.921712 C42.981663,29.9296092 27.9430959,29.9920308 16.2260041,29.9993084 L12.2233296,29.9993869 C6.78432062,29.9956491 2.71013147,29.9742898 2.16960942,29.9208918 C0.367869248,29.7432537 0,28.4390346 0,28.4390346 L0,28.4390346 L0,10.8489523 Z M42.5226016,0 C43.9066341,0.368421053 44,2.52294737 44,2.52294737 L44,2.52294737 L44,20.2631579 L43.2845528,21 L41.495935,21 L41.1382114,20.6315789 L40.4227642,19.8947368 L40.4227642,6.26315789 C40.0867209,3.84051037 38.172292,3.69368324 37.9414744,3.68478463 L32.9105691,3.68421053 L31.9575935,4.05263158 L30.4655285,4.05263158 L28.9756098,3.68421053 L23.9674797,3.68421053 L23.2434472,4.05263158 L22.1788618,3.68421053 L20.3902439,3.68421053 L19.8411382,4.05263158 L17.9609431,4.05263158 L17.1707317,3.68421053 L11.4471545,3.68421053 L10.3739837,4.05263158 L1.43089431,4.05263158 L0.357723577,3.906 L0,3.53721053 L0,0.736842105 L0.357723577,0 Z" id="square"></path>
        </g>
    </g>
</svg>