{
    "asset" : {
        "generator" : "Khronos glTF Blender I/O v1.4.40",
        "version" : "2.0"
    },
    "scene" : 0,
    "scenes" : [
        {
            "name" : "Scene",
            "nodes" : [
                0
            ]
        }
    ],
    "nodes" : [
        {
            "mesh" : 0,
            "name" : "Curve.002",
            "scale" : [
                27.087692260742188,
                27.087692260742188,
                27.087692260742188
            ],
            "translation" : [
                0,
                -0.0033527016639709473,
                0
            ]
        }
    ],
    "materials" : [
        {
            "doubleSided" : true,
            "name" : "SVGMat",
            "pbrMetallicRoughness" : {
                "baseColorFactor" : [
                    1,
                    1,
                    1,
                    1
                ],
                "metallicFactor" : 0,
                "roughnessFactor" : 0.4000000059604645
            }
        }
    ],
    "meshes" : [
        {
            "name" : "Curve.002",
            "primitives" : [
                {
                    "attributes" : {
                        "POSITION" : 0,
                        "NORMAL" : 1,
                        "TEXCOORD_0" : 2
                    },
                    "indices" : 3,
                    "material" : 0
                }
            ]
        }
    ],
    "accessors" : [
        {
            "bufferView" : 0,
            "componentType" : 5126,
            "count" : 607,
            "max" : [
                0.08951462060213089,
                0.025117985904216766,
                0.09081676602363586
            ],
            "min" : [
                -0.0809934213757515,
                -0.024882014840841293,
                -0.08033359795808792
            ],
            "type" : "VEC3"
        },
        {
            "bufferView" : 1,
            "componentType" : 5126,
            "count" : 607,
            "type" : "VEC3"
        },
        {
            "bufferView" : 2,
            "componentType" : 5126,
            "count" : 607,
            "type" : "VEC2"
        },
        {
            "bufferView" : 3,
            "componentType" : 5123,
            "count" : 1080,
            "type" : "SCALAR"
        }
    ],
    "bufferViews" : [
        {
            "buffer" : 0,
            "byteLength" : 7284,
            "byteOffset" : 0
        },
        {
            "buffer" : 0,
            "byteLength" : 7284,
            "byteOffset" : 7284
        },
        {
            "buffer" : 0,
            "byteLength" : 4856,
            "byteOffset" : 14568
        },
        {
            "buffer" : 0,
            "byteLength" : 2160,
            "byteOffset" : 19424
        }
    ],
    "buffers" : [
        {
            "byteLength" : 21584,
            "uri" : "data:application/octet-stream;base64,"
        }
    ]
}
