{
    "asset" : {
        "generator" : "Khronos glTF Blender I/O v1.2.75",
        "version" : "2.0"
    },
    "scene" : 0,
    "scenes" : [
        {
            "name" : "Scene",
            "nodes" : [
                0,
                1,
                2
            ]
        }
    ],
    "nodes" : [
        {
            "mesh" : 0,
            "name" : "stair"
        },
        {
            "mesh" : 1,
            "name" : "bottom"
        },
        {
            "mesh" : 2,
            "name" : "water"
        }
    ],
    "materials" : [
        {
            "doubleSided" : true,
            "emissiveFactor" : [
                0,
                0,
                0
            ],
            "name" : "mat_01",
            "pbrMetallicRoughness" : {
                "baseColorFactor" : [
                    0.36724331974983215,
                    0.20344868302345276,
                    0.10739508271217346,
                    1
                ],
                "metallicFactor" : 0,
                "roughnessFactor" : 0.5
            }
        },
        {
            "doubleSided" : true,
            "emissiveFactor" : [
                0,
                0,
                0
            ],
            "name" : "mat_base",
            "pbrMetallicRoughness" : {
                "baseColorFactor" : [
                    0.800000011920929,
                    0.800000011920929,
                    0.800000011920929,
                    1
                ],
                "metallicFactor" : 0,
                "roughnessFactor" : 0.5
            }
        },
        {
            "alphaMode" : "BLEND",
            "doubleSided" : true,
            "emissiveFactor" : [
                0,
                0,
                0
            ],
            "name" : "mat_water",
            "pbrMetallicRoughness" : {
                "baseColorFactor" : [
                    0.07752062380313873,
                    0.31005609035491943,
                    0.6982001662254333,
                    1
                ],
                "metallicFactor" : 1,
                "roughnessFactor" : 0
            }
        }
    ],
    "meshes" : [
        {
            "name" : "Cube.001",
            "primitives" : [
                {
                    "attributes" : {
                        "POSITION" : 0,
                        "NORMAL" : 1,
                        "TEXCOORD_0" : 2
                    },
                    "indices" : 3,
                    "material" : 0
                }
            ]
        },
        {
            "name" : "Cube",
            "primitives" : [
                {
                    "attributes" : {
                        "POSITION" : 4,
                        "NORMAL" : 5,
                        "TEXCOORD_0" : 6
                    },
                    "indices" : 7,
                    "material" : 1
                }
            ]
        },
        {
            "name" : "Cube.004",
            "primitives" : [
                {
                    "attributes" : {
                        "POSITION" : 8,
                        "NORMAL" : 9,
                        "TEXCOORD_0" : 10
                    },
                    "indices" : 11,
                    "material" : 2
                }
            ]
        }
    ],
    "accessors" : [
        {
            "bufferView" : 0,
            "componentType" : 5126,
            "count" : 434,
            "max" : [
                5.645309925079346,
                17.330734252929688,
                8.269394874572754
            ],
            "min" : [
                -5.645310401916504,
                0.2922377586364746,
                -11.353188514709473
            ],
            "type" : "VEC3"
        },
        {
            "bufferView" : 1,
            "componentType" : 5126,
            "count" : 434,
            "type" : "VEC3"
        },
        {
            "bufferView" : 2,
            "componentType" : 5126,
            "count" : 434,
            "type" : "VEC2"
        },
        {
            "bufferView" : 3,
            "componentType" : 5123,
            "count" : 852,
            "type" : "SCALAR"
        },
        {
            "bufferView" : 4,
            "componentType" : 5126,
            "count" : 24,
            "max" : [
                13.602302551269531,
                0.32012665271759033,
                13.602302551269531
            ],
            "min" : [
                -13.602302551269531,
                -0.009013041853904724,
                -13.602302551269531
            ],
            "type" : "VEC3"
        },
        {
            "bufferView" : 5,
            "componentType" : 5126,
            "count" : 24,
            "type" : "VEC3"
        },
        {
            "bufferView" : 6,
            "componentType" : 5126,
            "count" : 24,
            "type" : "VEC2"
        },
        {
            "bufferView" : 7,
            "componentType" : 5123,
            "count" : 36,
            "type" : "SCALAR"
        },
        {
            "bufferView" : 8,
            "componentType" : 5126,
            "count" : 7430,
            "max" : [
                13.602302551269531,
                4.848515510559082,
                13.602302551269531
            ],
            "min" : [
                -13.602302551269531,
                0.30474853515625,
                -13.602302551269531
            ],
            "type" : "VEC3"
        },
        {
            "bufferView" : 9,
            "componentType" : 5126,
            "count" : 7430,
            "type" : "VEC3"
        },
        {
            "bufferView" : 10,
            "componentType" : 5126,
            "count" : 7430,
            "type" : "VEC2"
        },
        {
            "bufferView" : 11,
            "componentType" : 5123,
            "count" : 12702,
            "type" : "SCALAR"
        }
    ],
    "bufferViews" : [
        {
            "buffer" : 0,
            "byteLength" : 5208,
            "byteOffset" : 0
        },
        {
            "buffer" : 0,
            "byteLength" : 5208,
            "byteOffset" : 5208
        },
        {
            "buffer" : 0,
            "byteLength" : 3472,
            "byteOffset" : 10416
        },
        {
            "buffer" : 0,
            "byteLength" : 1704,
            "byteOffset" : 13888
        },
        {
            "buffer" : 0,
            "byteLength" : 288,
            "byteOffset" : 15592
        },
        {
            "buffer" : 0,
            "byteLength" : 288,
            "byteOffset" : 15880
        },
        {
            "buffer" : 0,
            "byteLength" : 192,
            "byteOffset" : 16168
        },
        {
            "buffer" : 0,
            "byteLength" : 72,
            "byteOffset" : 16360
        },
        {
            "buffer" : 0,
            "byteLength" : 89160,
            "byteOffset" : 16432
        },
        {
            "buffer" : 0,
            "byteLength" : 89160,
            "byteOffset" : 105592
        },
        {
            "buffer" : 0,
            "byteLength" : 59440,
            "byteOffset" : 194752
        },
        {
            "buffer" : 0,
            "byteLength" : 25404,
            "byteOffset" : 254192
        }
    ],
    "buffers" : [
        {
            "byteLength" : 279596,
            "uri" : "data:application/octet-stream;base64,"
        }
    ]
}
