<?xml version="1.0" encoding="UTF-8"?>
<svg width="1182px" height="200px" viewBox="0 0 1182 200" version="1.1" xmlns="http://www.w3.org/2000/svg" xmlns:xlink="http://www.w3.org/1999/xlink">
    <title>Artboard</title>
    <g id="Artboard" stroke="none" stroke-width="1" fill="none" fill-rule="evenodd" opacity="0.4">
        <path d="M69.4,198.28 C80.44,198.28 90.52,196.2 99.64,192.04 C108.76,187.88 116.32,182.16 122.32,174.88 C128.32,167.6 132.36,159.32 134.44,150.04 L134.44,150.04 L84.28,150.04 C80.92,157.08 75.32,160.6 67.48,160.6 C61.88,160.6 57.28,158.8 53.68,155.2 C50.08,151.6 48.04,146.12 47.56,138.76 L47.56,138.76 L136.6,138.76 C137.08,135.08 137.32,131.4 137.32,127.72 C137.32,113.96 134.44,102 128.68,91.84 C122.92,81.68 114.92,73.88 104.68,68.44 C94.44,63 82.68,60.28 69.4,60.28 C55.96,60.28 44.08,63.08 33.76,68.68 C23.44,74.28 15.4,82.24 9.64,92.56 C3.88,102.88 1,115.08 1,129.16 C1,143.24 3.92,155.48 9.76,165.88 C15.6,176.28 23.68,184.28 34,189.88 C44.32,195.48 56.12,198.28 69.4,198.28 Z M89.32,115.96 L47.8,115.96 C48.92,109.88 51.32,105.28 55,102.16 C58.68,99.04 63.4,97.48 69.16,97.48 C74.92,97.48 79.72,99.12 83.56,102.4 C87.4,105.68 89.32,110.2 89.32,115.96 L89.32,115.96 Z M189.58,196.6 L208.78,162.76 L233.02,196.6 L285.82,196.6 L238.3,130.6 L284.14,61.96 L232.54,61.96 L213.1,95.8 L188.86,61.96 L136.06,61.96 L182.86,126.76 L137.98,196.6 L189.58,196.6 Z M339.28,196.6 L339.28,124.36 C339.28,116.68 341.28,110.64 345.28,106.24 C349.28,101.84 354.8,99.64 361.84,99.64 C368.56,99.64 373.92,101.84 377.92,106.24 C381.92,110.64 383.92,116.68 383.92,124.36 L383.92,124.36 L383.92,196.6 L430.96,196.6 L430.96,118.12 C430.96,100.52 426.44,86.56 417.4,76.24 C408.36,65.92 396.16,60.76 380.8,60.76 C371.52,60.76 363.32,62.64 356.2,66.4 C349.08,70.16 343.44,75.08 339.28,81.16 L339.28,81.16 L339.28,19 L292.24,19 L292.24,196.6 L339.28,196.6 Z M473.14,49.48 C481.3,49.48 487.9,47.2 492.94,42.64 C497.98,38.08 500.5,32.36 500.5,25.48 C500.5,18.44 497.98,12.6 492.94,7.96 C487.9,3.32 481.3,1 473.14,1 C464.82,1 458.14,3.32 453.1,7.96 C448.06,12.6 445.54,18.44 445.54,25.48 C445.54,32.36 448.06,38.08 453.1,42.64 C458.14,47.2 464.82,49.48 473.14,49.48 Z M496.42,196.6 L496.42,61.96 L449.38,61.96 L449.38,196.6 L496.42,196.6 Z M602.2,198.28 C612.92,198.28 622.64,195.48 631.36,189.88 C640.08,184.28 646.96,176.24 652,165.76 C657.04,155.28 659.56,143.08 659.56,129.16 C659.56,115.24 657.04,103.08 652,92.68 C646.96,82.28 640.08,74.28 631.36,68.68 C622.64,63.08 612.92,60.28 602.2,60.28 C593.08,60.28 585.16,62.08 578.44,65.68 C571.72,69.28 566.52,74.28 562.84,80.68 L562.84,80.68 L562.84,19 L515.8,19 L515.8,196.6 L562.84,196.6 L562.84,177.88 C566.52,184.28 571.72,189.28 578.44,192.88 C585.16,196.48 593.08,198.28 602.2,198.28 Z M587.32,157.24 C580.44,157.24 574.64,154.76 569.92,149.8 C565.2,144.84 562.84,137.96 562.84,129.16 C562.84,120.52 565.2,113.72 569.92,108.76 C574.64,103.8 580.44,101.32 587.32,101.32 C594.2,101.32 600,103.76 604.72,108.64 C609.44,113.52 611.8,120.36 611.8,129.16 C611.8,137.8 609.44,144.64 604.72,149.68 C600,154.72 594.2,157.24 587.32,157.24 Z M695.26,49.48 C703.42,49.48 710.02,47.2 715.06,42.64 C720.1,38.08 722.62,32.36 722.62,25.48 C722.62,18.44 720.1,12.6 715.06,7.96 C710.02,3.32 703.42,1 695.26,1 C686.94,1 680.26,3.32 675.22,7.96 C670.18,12.6 667.66,18.44 667.66,25.48 C667.66,32.36 670.18,38.08 675.22,42.64 C680.26,47.2 686.94,49.48 695.26,49.48 Z M718.54,196.6 L718.54,61.96 L671.5,61.96 L671.5,196.6 L718.54,196.6 Z M817.36,196.6 L817.36,156.52 L803.68,156.52 C799.68,156.52 796.84,155.72 795.16,154.12 C793.48,152.52 792.64,149.88 792.64,146.2 L792.64,146.2 L792.64,101.08 L817.12,101.08 L817.12,61.96 L792.64,61.96 L792.64,29.32 L745.36,29.32 L745.36,61.96 L728.8,61.96 L728.8,101.08 L745.36,101.08 L745.36,145.48 C745.36,179.56 762.56,196.6 796.96,196.6 L796.96,196.6 L817.36,196.6 Z M855.22,49.48 C863.38,49.48 869.98,47.2 875.02,42.64 C880.06,38.08 882.58,32.36 882.58,25.48 C882.58,18.44 880.06,12.6 875.02,7.96 C869.98,3.32 863.38,1 855.22,1 C846.9,1 840.22,3.32 835.18,7.96 C830.14,12.6 827.62,18.44 827.62,25.48 C827.62,32.36 830.14,38.08 835.18,42.64 C840.22,47.2 846.9,49.48 855.22,49.48 Z M878.5,196.6 L878.5,61.96 L831.46,61.96 L831.46,196.6 L878.5,196.6 Z M960.52,198.28 C973.96,198.28 986.04,195.48 996.76,189.88 C1007.48,184.28 1015.92,176.24 1022.08,165.76 C1028.24,155.28 1031.32,143.08 1031.32,129.16 C1031.32,115.24 1028.24,103.08 1022.08,92.68 C1015.92,82.28 1007.52,74.28 996.88,68.68 C986.24,63.08 974.2,60.28 960.76,60.28 C947.32,60.28 935.28,63.08 924.64,68.68 C914,74.28 905.6,82.28 899.44,92.68 C893.28,103.08 890.2,115.24 890.2,129.16 C890.2,143.24 893.24,155.48 899.32,165.88 C905.4,176.28 913.76,184.28 924.4,189.88 C935.04,195.48 947.08,198.28 960.52,198.28 Z M960.52,157.48 C953.96,157.48 948.6,155.08 944.44,150.28 C940.28,145.48 938.2,138.44 938.2,129.16 C938.2,120.04 940.36,113.08 944.68,108.28 C949,103.48 954.36,101.08 960.76,101.08 C967.16,101.08 972.56,103.48 976.96,108.28 C981.36,113.08 983.56,120.04 983.56,129.16 C983.56,138.28 981.36,145.28 976.96,150.16 C972.56,155.04 967.08,157.48 960.52,157.48 Z M1090.06,196.6 L1090.06,124.36 C1090.06,116.68 1092.06,110.64 1096.06,106.24 C1100.06,101.84 1105.58,99.64 1112.62,99.64 C1119.34,99.64 1124.7,101.84 1128.7,106.24 C1132.7,110.64 1134.7,116.68 1134.7,124.36 L1134.7,124.36 L1134.7,196.6 L1181.74,196.6 L1181.74,118.12 C1181.74,100.52 1177.18,86.56 1168.06,76.24 C1158.94,65.92 1146.62,60.76 1131.1,60.76 C1121.98,60.76 1113.9,62.64 1106.86,66.4 C1099.82,70.16 1094.22,75.08 1090.06,81.16 L1090.06,81.16 L1090.06,61.96 L1043.02,61.96 L1043.02,196.6 L1090.06,196.6 Z" id="exhibition" stroke="#FFFFFF" fill-rule="nonzero"></path>
    </g>
</svg>