<?xml version="1.0" encoding="utf-8"?>
<!-- Generator: Adobe Illustrator 24.3.0, SVG Export Plug-In . SVG Version: 6.00 Build 0)  -->
<svg version="1.1" id="Layer_1" xmlns="http://www.w3.org/2000/svg" xmlns:xlink="http://www.w3.org/1999/xlink" x="0px" y="0px"
	 viewBox="0 0 152 152" style="enable-background:new 0 0 152 152;" xml:space="preserve">
<style type="text/css">
	.st0{fill:#000;}
</style>
<desc>Created with Sketch.</desc>
<g>
	<path class="st0" d="M76.9,9.1c0.5,0.3,1.2,0.6,2,0.6c0.8,0,1.3-0.3,1.3-0.8c0-0.5-0.3-0.8-1.3-1.2c-1.3-0.5-2.2-1.3-2.1-2.5
		c0.1-1.4,1.3-2.4,3.2-2.3c0.9,0,1.6,0.3,2,0.5l-0.5,1.5c-0.3-0.2-0.9-0.4-1.7-0.5s-1.2,0.3-1.2,0.7c0,0.5,0.4,0.8,1.4,1.2
		c1.4,0.6,2,1.4,2,2.5c-0.1,1.4-1.2,2.5-3.4,2.3c-0.9,0-1.8-0.3-2.3-0.6L76.9,9.1z"/>
	<path class="st0" d="M91.1,9.2l-2.9-0.6l-0.4,1.9l3.3,0.6l-0.3,1.5l-5.1-1l1.5-8l4.9,0.9l-0.3,1.5l-3.1-0.6l-0.3,1.7l2.9,0.6
		L91.1,9.2z"/>
	<path class="st0" d="M102.9,12.2c-0.9,2.5-2.9,3.5-5.2,2.7c-2.3-0.8-3-3-2.2-5.2c0.8-2.3,2.9-3.5,5.1-2.7
		C103,7.9,103.6,10.1,102.9,12.2z M97.3,10.3c-0.5,1.5-0.2,2.8,0.9,3.2c1.2,0.4,2.2-0.5,2.8-1.9c0.5-1.4,0.3-2.8-0.9-3.2
		C98.9,8,97.8,8.8,97.3,10.3z"/>
	<path class="st0" d="M110.4,11.5l-2.3,4.1c-0.7,1.2-0.6,2.1,0.3,2.5c0.8,0.5,1.6,0.1,2.3-1.1l2.3-4.1l1.6,0.9l-2.2,4
		c-1.2,2.2-2.9,2.6-4.7,1.6c-1.8-1-2.3-2.6-1-4.8l2.2-3.9L110.4,11.5z"/>
	<path class="st0" d="M119,16.8l1.5,1.1l-4,5.2l2.5,2l-0.9,1.2l-4-3.1L119,16.8z"/>
	<path class="st0" d="M131,35.8c0.7-0.6,1.6-1.4,2.6-2.1l0,0c-1,0.4-2.1,0.9-3,1.2l-3.1,1.2l-0.9-1.1l1.9-2.6c0.6-0.8,1.3-1.7,2-2.5
		l0,0c-0.9,0.6-1.9,1.4-2.7,2l-2.5,1.8l-1-1.3l6.7-4.6l1.5,1.9l-1.6,2.3c-0.6,0.8-1.2,1.6-1.8,2.3l0,0c0.9-0.4,1.9-0.8,2.8-1.2
		l2.6-1l1.5,1.9l-6.1,5.4l-1.1-1.4L131,35.8z"/>
	<path class="st0" d="M139.8,40.3l-4.1,2.2c-1.2,0.7-1.6,1.5-1.2,2.3c0.5,0.8,1.3,1,2.6,0.3l4.1-2.2l0.9,1.6l-4,2.1
		c-2.2,1.2-3.8,0.6-4.8-1.2c-1-1.8-0.5-3.4,1.7-4.6l4-2.1L139.8,40.3z"/>
	<path class="st0" d="M138.3,51.6c-0.1,0.5-0.1,1.3,0.2,2.1c0.3,0.8,0.8,1.1,1.3,0.9c0.5-0.2,0.6-0.6,0.6-1.7c0-1.4,0.4-2.5,1.5-2.9
		c1.3-0.5,2.7,0.3,3.3,2.1c0.3,0.9,0.3,1.6,0.3,2.1l-1.5,0.1c0-0.4,0.1-1-0.2-1.7s-0.7-1-1.1-0.9c-0.5,0.2-0.6,0.7-0.6,1.8
		c0,1.5-0.5,2.4-1.6,2.8c-1.3,0.5-2.7-0.2-3.4-2.2c-0.3-0.9-0.4-1.8-0.3-2.3L138.3,51.6z"/>
	<path class="st0" d="M143.6,64.8l-0.6-2.9l-1.9,0.4l0.7,3.3l-1.5,0.3l-1-5.1l7.9-1.6l1,4.9l-1.5,0.3l-0.6-3.1l-1.6,0.3l0.6,2.9
		L143.6,64.8z"/>
	<path class="st0" d="M149,71l-4.7,0.2c-1.4,0.1-2.1,0.6-2,1.6c0,1,0.7,1.5,2.2,1.4l4.7-0.2l0.1,1.8l-4.5,0.2
		c-2.5,0.1-3.7-1.1-3.8-3.2c-0.1-2,1-3.3,3.6-3.4l4.5-0.2L149,71z"/>
	<path class="st0" d="M143.2,87.4c1,0.1,2.1,0.2,3.3,0.4l0,0c-1-0.4-2.1-0.9-3-1.3l-3-1.4l0.2-1.4l3.2-0.5c1-0.1,2.2-0.3,3.2-0.3
		l0,0c-1.1-0.2-2.3-0.4-3.3-0.6l-3-0.5l0.2-1.7l8,1.6l-0.3,2.4l-2.8,0.4c-1,0.1-2,0.2-3,0.3l0,0c0.9,0.3,1.9,0.8,2.8,1.1l2.6,1.2
		l-0.3,2.4l-8.1-0.6l0.2-1.8L143.2,87.4z"/>
	<path class="st0" d="M138.4,106c-2.5-1-3.3-3.1-2.4-5.3c0.9-2.2,3.1-2.8,5.3-1.9c2.2,0.9,3.3,3.1,2.4,5.3
		C142.7,106.4,140.5,106.9,138.4,106z M140.6,100.6c-1.5-0.6-2.8-0.3-3.2,0.8c-0.5,1.1,0.3,2.2,1.8,2.8c1.3,0.6,2.8,0.4,3.2-0.8
		C142.8,102.3,142,101.2,140.6,100.6z"/>
	<path class="st0" d="M139.7,111.9l-2.6,4.2l-1.3-0.8l1.6-2.7l-1.6-1l-1.5,2.5l-1.3-0.8l1.5-2.5l-2.8-1.7l1-1.6L139.7,111.9z"/>
	<path class="st0" d="M120.8,123.6c0.1-0.4,0.5-1,1.2-1.7c1.9-2,4.2-1.8,5.9-0.2c2,1.9,1.7,4.4,0,6.2c-0.7,0.7-1.3,1.1-1.6,1.2
		l-0.8-1.3c0.4-0.2,0.8-0.4,1.3-0.9c1-1,1.2-2.5-0.1-3.7c-1.2-1.1-2.6-1.1-3.7,0c-0.4,0.4-0.7,0.9-0.9,1.3L120.8,123.6z"/>
	<path class="st0" d="M122.7,132.2c-0.4,0.4-1.1,1-1.8,1.6c-1,0.7-1.7,1.1-2.5,1.1c-0.6,0-1.2-0.3-1.6-0.9c-0.6-0.8-0.5-1.8-0.1-2.4
		l0,0c-0.6,0.2-1.2-0.1-1.8-0.5c-0.8-0.6-1.6-1.3-1.9-1.4l1.5-1.1c0.2,0.1,0.8,0.5,1.6,1.1c0.8,0.7,1.2,0.7,1.8,0.2l0.4-0.3
		l-1.9-2.5l1.4-1.1L122.7,132.2z M119.1,130.6l-0.6,0.4c-0.7,0.6-0.9,1.2-0.4,1.8c0.5,0.6,1.1,0.6,1.8,0.1c0.4-0.3,0.5-0.5,0.6-0.6
		L119.1,130.6z"/>
	<path class="st0" d="M109.2,134.3l-0.5-2.1l1.7-0.9l1.7,8.3l-2.1,1.2l-6.1-5.9l1.7-0.9l1.5,1.5L109.2,134.3z M108.1,136.5l1.3,1.3
		c0.4,0.4,0.8,0.8,1.1,1.2l0,0c-0.1-0.5-0.3-1.1-0.4-1.5l-0.4-1.7L108.1,136.5z"/>
	<path class="st0" d="M103.3,143.9l-4.6,1.7l-0.5-1.4l2.9-1.1l-0.6-1.7l-2.7,1l-0.5-1.4l2.7-1l-1.1-3.1l1.7-0.6L103.3,143.9z"/>
	<path class="st0" d="M92,145.8l2.1-0.5l0.3,1.5l-6.1,1.3l-0.3-1.5l2.2-0.5l-1.4-6.4l1.8-0.4L92,145.8z"/>
	<path class="st0" d="M76.1,143.1l0.6-2.1l1.9,0l-2.6,8l-2.4,0l-2.4-8.1l2,0l0.6,2.1L76.1,143.1z M74.1,144.4l0.5,1.7
		c0.1,0.5,0.3,1.1,0.4,1.6h0c0.1-0.5,0.3-1.1,0.4-1.6l0.5-1.7L74.1,144.4z"/>
	<path class="st0" d="M66.3,148.4c-0.6,0-1.5-0.1-2.4-0.2c-1.2-0.2-2-0.5-2.5-1.1c-0.4-0.5-0.6-1.1-0.4-1.8c0.2-1,1-1.6,1.7-1.7l0,0
		c-0.5-0.3-0.7-0.9-0.8-1.7c-0.1-0.9-0.2-2-0.3-2.4l1.8,0.3c0.1,0.2,0.2,0.9,0.2,2c0,1,0.3,1.4,1.1,1.5l0.5,0.1l0.5-3.1l1.8,0.3
		L66.3,148.4z M65.1,144.7l-0.7-0.1c-0.9-0.2-1.5,0.2-1.6,0.9c-0.1,0.7,0.3,1.2,1.1,1.3c0.4,0.1,0.7,0.1,0.8,0.1L65.1,144.7z"/>
	<path class="st0" d="M54.7,144.3l2.1,0.7l-0.5,1.5l-5.9-1.9l0.5-1.5l2.1,0.7l2-6.2l1.7,0.6L54.7,144.3z"/>
	<path class="st0" d="M39.1,133.7l2.6,1.5l1-1.7l-2.9-1.7l0.8-1.3l4.4,2.6l-4.1,7l-4.3-2.5l0.8-1.3l2.7,1.6l0.9-1.4l-2.6-1.5
		L39.1,133.7z"/>
	<path class="st0" d="M32.4,134.6c-0.6-0.3-1.3-0.9-2-1.4c-1.2-1-1.8-1.8-2-2.8c-0.3-1,0-2.1,0.9-3.2c1-1.2,2.1-1.7,3.1-1.7
		c1.1,0,2.3,0.6,3.5,1.6c0.7,0.6,1.2,1.1,1.5,1.4L32.4,134.6z M35.1,128.3c-0.1-0.1-0.3-0.3-0.5-0.4c-1.3-1.1-2.7-1-3.9,0.5
		c-1.1,1.3-0.9,2.6,0.3,3.6c0.3,0.3,0.5,0.4,0.7,0.5L35.1,128.3z"/>
	<path class="st0" d="M22,125.2l3.5-3.1c1-0.9,1.2-1.8,0.6-2.5c-0.6-0.7-1.5-0.7-2.6,0.3L20,123l-1.2-1.4l3.4-3
		c1.9-1.6,3.6-1.5,5,0.1c1.3,1.5,1.3,3.2-0.7,4.9l-3.4,3L22,125.2z"/>
	<path class="st0" d="M19.1,108.1c0.3,0.2,0.9,0.7,1.4,1.6c1.5,2.4,0.8,4.5-1.2,5.7c-2.3,1.5-4.7,0.6-6-1.4
		c-0.5-0.8-0.7-1.5-0.8-1.9l1.4-0.5c0.1,0.4,0.2,0.9,0.6,1.5c0.8,1.2,2.1,1.7,3.6,0.8c1.4-0.9,1.7-2.2,0.9-3.6
		c-0.3-0.5-0.7-0.9-1-1.1L19.1,108.1z"/>
	<path class="st0" d="M14.9,103.6l2.1-0.3l0.8,1.7L9.3,106l-0.9-2.2l6.4-5.5l0.8,1.8l-1.7,1.4L14.9,103.6z M12.8,102.3l-1.4,1.1
		c-0.4,0.3-0.9,0.7-1.3,1l0,0c0.5-0.1,1.1-0.2,1.6-0.3l1.8-0.2L12.8,102.3z"/>
	<path class="st0" d="M7.3,96l0.6,2.1l-1.5,0.4l-1.7-6l1.5-0.4l0.6,2.1l6.3-1.7l0.5,1.8L7.3,96z"/>
	<path class="st0" d="M3.6,86.2l8-1.2l0.3,1.8l-8,1.2L3.6,86.2z"/>
	<path class="st0" d="M6.8,73.6c2.7-0.1,4.3,1.5,4.3,3.9c0,2.4-1.7,3.8-4,3.9c-2.4,0-4.3-1.5-4.3-3.8C2.8,75,4.6,73.6,6.8,73.6z
		 M7.1,79.4c1.6,0,2.7-0.8,2.7-2c0-1.2-1.2-1.9-2.8-1.9c-1.5,0-2.7,0.8-2.7,2C4.3,78.7,5.5,79.4,7.1,79.4z"/>
	<path class="st0" d="M11.2,69.8l-8-1.2l0.3-2.1l3.2-1.2c0.9-0.4,2-0.7,2.9-0.9l0,0c-1.1,0-2.2-0.2-3.4-0.3L4,63.6L4.2,62l8,1.2
		l-0.3,1.9l-3.3,1.3c-0.9,0.3-2,0.7-3,1l0,0c1.1,0.1,2.2,0.3,3.5,0.4l2.4,0.4L11.2,69.8z"/>
	<path class="st0" d="M7.3,51.3C7.4,50.7,7.6,50,8,48.9c0.4-1,0.9-1.7,1.5-2.1c0.6-0.3,1.3-0.4,2.1-0.1s1.3,0.8,1.5,1.4
		c0.3,0.8,0.2,1.8-0.2,2.8c-0.1,0.2-0.2,0.4-0.3,0.6l2.7,1.1l-0.7,1.7L7.3,51.3z M11.4,51c0.1-0.1,0.2-0.3,0.3-0.6
		c0.4-0.9,0.1-1.6-0.6-2c-0.7-0.3-1.3,0-1.6,0.9c-0.1,0.3-0.2,0.6-0.2,0.7L11.4,51z"/>
	<path class="st0" d="M11.6,41.5c0.2-0.6,0.6-1.3,1.1-2.2c0.6-1,1.2-1.7,1.9-1.9c0.6-0.2,1.2-0.2,1.8,0.2c0.9,0.5,1.1,1.5,1,2.2l0,0
		c0.5-0.4,1.1-0.4,1.9-0.2c0.9,0.2,2,0.6,2.3,0.6l-0.9,1.6c-0.3,0-0.9-0.2-1.9-0.5c-1-0.3-1.4-0.2-1.8,0.5l-0.3,0.5l2.7,1.6
		l-0.9,1.6L11.6,41.5z M15.6,41.7l0.4-0.6c0.5-0.8,0.3-1.5-0.3-1.8c-0.6-0.4-1.2-0.1-1.7,0.6c-0.2,0.4-0.3,0.6-0.4,0.7L15.6,41.7z"
		/>
	<path class="st0" d="M25.1,29.1c2,1.7,2.3,3.9,0.8,5.8c-1.5,1.9-3.8,1.8-5.6,0.3c-1.9-1.5-2.3-3.9-0.8-5.7
		C21.1,27.5,23.4,27.6,25.1,29.1z M21.5,33.6c1.2,1,2.6,1.1,3.3,0.2c0.8-1,0.3-2.2-0.9-3.2c-1.1-0.9-2.5-1.2-3.3-0.2
		C19.8,31.3,20.3,32.6,21.5,33.6z"/>
	<path class="st0" d="M35.8,24.4c-0.3,0.5-0.9,1.4-1.7,2.1c-1.1,1-2.2,1.4-3.2,1.3c-1,0-2-0.6-2.8-1.5c-1.8-2-1.3-4.5,0.7-6.2
		c0.8-0.7,1.5-1.1,2-1.2l0.7,1.4c-0.5,0.1-1,0.4-1.7,1c-1.2,1-1.5,2.4-0.3,3.7c1.1,1.3,2.5,1.3,3.7,0.3c0.3-0.3,0.5-0.5,0.6-0.7
		l-1.1-1.3l-0.9,0.8l-0.9-1.1l2.3-2L35.8,24.4z"/>
	<path class="st0" d="M35,15.5c0.4-0.4,1.2-0.9,2-1.4c1-0.6,1.8-0.9,2.6-0.8c0.6,0.1,1.1,0.4,1.5,1c0.5,0.9,0.3,1.9-0.2,2.4l0,0
		c0.6-0.1,1.2,0.2,1.7,0.7c0.7,0.6,1.5,1.4,1.8,1.6l-1.6,1c-0.2-0.1-0.7-0.6-1.5-1.3c-0.7-0.7-1.2-0.8-1.8-0.4l-0.5,0.3l1.7,2.7
		l-1.5,1L35,15.5z M38.4,17.5l0.6-0.4c0.8-0.5,1-1.2,0.6-1.8c-0.4-0.6-1-0.7-1.7-0.2c-0.4,0.2-0.6,0.4-0.7,0.5L38.4,17.5z"/>
	<path class="st0" d="M48.6,14.8l0.3,2.1l-1.7,0.7l-0.9-8.4l2.2-0.9l5.5,6.5l-1.8,0.8l-1.4-1.7L48.6,14.8z M50,12.7l-1.1-1.4
		c-0.3-0.4-0.7-0.9-1-1.3l0,0c0.1,0.5,0.2,1.1,0.3,1.6l0.2,1.8L50,12.7z"/>
	<path class="st0" d="M63.3,9.1c-0.2-0.9-0.5-2.1-0.8-3.2l0,0c0,1.1-0.1,2.3-0.2,3.3l-0.3,3.3l-1.4,0.3l-1.5-2.9
		c-0.5-0.9-1-1.9-1.4-2.9l0,0c0.2,1.1,0.4,2.3,0.6,3.3l0.5,3l-1.7,0.4l-1.3-8l2.4-0.5l1.4,2.5c0.5,0.9,0.9,1.8,1.3,2.7l0,0
		c0-1,0-2.1,0.1-3l0.2-2.8l2.3-0.5l2.2,7.8L64.1,12L63.3,9.1z"/>
</g>
</svg>
