<?xml version="1.0" encoding="UTF-8"?>
<svg width="48px" height="48px" viewBox="0 0 48 48" version="1.1" xmlns="http://www.w3.org/2000/svg" xmlns:xlink="http://www.w3.org/1999/xlink">
    <title>Artboard Copy</title>
    <g id="Artboard-Copy" stroke="none" stroke-width="1" fill="none" fill-rule="evenodd">
        <path d="M24,6 C28.9705627,6 33,10.0294373 33,15 C33,19.9705627 28.9705627,24 24,24 C19.0294373,24 15,19.9705627 15,15 C15,10.0294373 19.0294373,6 24,6 Z M24,9 C20.6862915,9 18,11.6862915 18,15 C18,18.3137085 20.6862915,21 24,21 C27.3137085,21 30,18.3137085 30,15 C30,11.6862915 27.3137085,9 24,9 Z" id="Oval" fill="#000000" fill-rule="nonzero"></path>
        <path d="M25,21.5 C32.3522907,21.5 38.3318345,27.3774286 38.4965146,34.6901692 L38.5,35 L38.5,39 C38.5,40.8685634 37.0357224,42.3951264 35.1920352,42.4948211 L35,42.5 L18.9184631,42.5 L18.9184631,39.5 L35,39.5 C35.2454599,39.5 35.4496084,39.3231248 35.4919443,39.0898756 L35.5,39 L35.5,35 C35.5,29.2960755 30.951858,24.6544266 25.2842951,24.5037742 L25,24.5 L23,24.5 C17.2960755,24.5 12.6544266,29.048142 12.5037742,34.7157049 L12.5,35 L12.5,41 L9.5,41 L9.5,35 C9.5,27.6477093 15.3774286,21.6681655 22.6901692,21.5034854 L23,21.5 L25,21.5 Z" id="Path" fill="#000000" fill-rule="nonzero"></path>
    </g>
</svg>