<?xml version="1.0" encoding="UTF-8"?>
<svg width="48px" height="48px" viewBox="0 0 48 48" version="1.1" xmlns="http://www.w3.org/2000/svg" xmlns:xlink="http://www.w3.org/1999/xlink">
    <title>Artboard</title>
    <g id="Artboard" stroke="none" stroke-width="1" fill="none" fill-rule="evenodd">
        <g id="Group-2" transform="translate(8.000000, 8.000000)" fill="#000000" fill-rule="nonzero">
            <path d="M13.5,0.5 C6.32029825,0.5 0.5,6.32029825 0.5,13.5 C0.5,20.6797017 6.32029825,26.5 13.5,26.5 C20.6797017,26.5 26.5,20.6797017 26.5,13.5 C26.5,6.32029825 20.6797017,0.5 13.5,0.5 Z M13.5,3.5 C19.0228475,3.5 23.5,7.9771525 23.5,13.5 C23.5,19.0228475 19.0228475,23.5 13.5,23.5 C7.9771525,23.5 3.5,19.0228475 3.5,13.5 C3.5,7.9771525 7.9771525,3.5 13.5,3.5 Z" id="Oval"></path>
            <path d="M20.6966991,20.4895924 C21.2458739,19.9404176 22.1149363,19.9060942 22.7040971,20.3866221 L22.8180195,20.4895924 L30.3033009,27.9748737 C30.8890873,28.5606602 30.8890873,29.5104076 30.3033009,30.0961941 C29.7541261,30.6453689 28.8850637,30.6796923 28.2959029,30.1991643 L28.1819805,30.0961941 L20.6966991,22.6109127 C20.1109127,22.0251263 20.1109127,21.0753788 20.6966991,20.4895924 Z" id="Line"></path>
        </g>
    </g>
</svg>