<?xml version="1.0" encoding="UTF-8"?>
<svg width="48px" height="48px" viewBox="0 0 48 48" version="1.1" xmlns="http://www.w3.org/2000/svg" xmlns:xlink="http://www.w3.org/1999/xlink">
    <title>Artboard Copy 2</title>
    <g id="Artboard-Copy-2" stroke="none" stroke-width="1" fill="none" fill-rule="evenodd">
        <g id="header/btn_search-xxl" transform="translate(9.000000, 8.000000)" fill="#000000">
            <path d="M6.19354839,1.8 L6.19354839,4.2 L3.2,4.2 C2.13213153,4.2 1.28423928,4.94722628 1.20590911,5.86165429 L1.2,6 L1.2,29 C1.2,29.9296981 1.99704136,30.7211957 3.04153825,30.7944683 L3.2,30.8 L28.8,30.8 C29.8678685,30.8 30.7157607,30.0527737 30.7940909,29.1383457 L30.8,29 L30.8,6 C30.8,5.07030188 30.0029586,4.27880426 28.9584618,4.20553169 L28.8,4.2 L25.6794108,4.2 L25.6794108,1.8 L28.8,1.8 C31.1423793,1.8 33.0827697,3.55452834 33.194884,5.79501588 L33.2,6 L33.2,29 C33.2,31.2687747 31.3285031,33.0900317 29.0117965,33.1952019 L28.8,33.2 L3.2,33.2 C0.85762069,33.2 -1.08276972,31.4454717 -1.19488405,29.2049841 L-1.2,29 L-1.2,6 C-1.2,3.73122528 0.671496899,1.90996827 2.98820352,1.80479811 L3.2,1.8 L6.19354839,1.8 Z M20,1.8 L20,4.2 L12,4.2 L12,1.8 L20,1.8 Z" id="Shape" fill-rule="nonzero"></path>
            <polygon id="Line" fill-rule="nonzero" points="32.5 8.3 32.5 10.7 0.5 10.7 0.5 8.3"></polygon>
            <rect id="Rectangle-Copy-5" x="5" y="19" width="3" height="3"></rect>
            <rect id="Rectangle-Copy-10" x="5" y="24" width="3" height="3"></rect>
            <rect id="Rectangle-Copy" x="10" y="14" width="3" height="3"></rect>
            <rect id="Rectangle-Copy-6" x="10" y="19" width="3" height="3"></rect>
            <rect id="Rectangle-Copy-11" x="10" y="24" width="3" height="3"></rect>
            <rect id="Rectangle-Copy-2" x="15" y="14" width="3" height="3"></rect>
            <rect id="Rectangle-Copy-7" x="15" y="19" width="3" height="3"></rect>
            <rect id="Rectangle-Copy-12" x="15" y="24" width="3" height="3"></rect>
            <rect id="Rectangle-Copy-3" x="20" y="14" width="3" height="3"></rect>
            <rect id="Rectangle-Copy-8" x="20" y="19" width="3" height="3"></rect>
            <rect id="Rectangle-Copy-13" x="20" y="24" width="3" height="3"></rect>
            <rect id="Rectangle-Copy-4" x="25" y="14" width="3" height="3"></rect>
            <rect id="Rectangle-Copy-9" x="25" y="19" width="3" height="3"></rect>
            <path d="M9,-0.7 C9.62132034,-0.7 10.1323525,-0.227800322 10.1938045,0.377306971 L10.2,0.5 L10.2,5.5 C10.2,6.1627417 9.6627417,6.7 9,6.7 C8.37867966,6.7 7.86764746,6.22780032 7.80619546,5.62269303 L7.8,5.5 L7.8,0.5 C7.8,-0.1627417 8.3372583,-0.7 9,-0.7 Z" id="Line-2" fill-rule="nonzero"></path>
            <path d="M23,-0.7 C23.6213203,-0.7 24.1323525,-0.227800322 24.1938045,0.377306971 L24.2,0.5 L24.2,5.5 C24.2,6.1627417 23.6627417,6.7 23,6.7 C22.3786797,6.7 21.8676475,6.22780032 21.8061955,5.62269303 L21.8,5.5 L21.8,0.5 C21.8,-0.1627417 22.3372583,-0.7 23,-0.7 Z" id="Line-2-Copy" fill-rule="nonzero"></path>
        </g>
    </g>
</svg>