<?xml version="1.0" encoding="UTF-8"?>
<svg width="48px" height="48px" viewBox="0 0 48 48" version="1.1" xmlns="http://www.w3.org/2000/svg" xmlns:xlink="http://www.w3.org/1999/xlink">
    <title>icon_header_calendar</title>
    <g id="icon_header_calendar" stroke="none" stroke-width="1" fill="none" fill-rule="evenodd">
        <path d="M32,7.5 C32.5128358,7.5 32.9355072,7.88604019 32.9932723,8.38337887 L33,8.5 L33,10 L37.8,10 C40.0358164,10 41.8848153,11.669919 41.9948228,13.7990824 L42,14 L42,37 C42,39.2240803 40.1056856,41 37.8,41 L37.8,41 L12.2,41 C9.89431438,41 8,39.2240803 8,37 L8,37 L8,14 C8,11.7759197 9.89431438,10 12.2,10 L12.2,10 L17,10 L17,8.5 C17,7.94771525 17.4477153,7.5 18,7.5 C18.5128358,7.5 18.9355072,7.88604019 18.9932723,8.38337887 L19,8.5 L19,10 L31,10 L31,8.5 C31,7.94771525 31.4477153,7.5 32,7.5 Z M40,18.5 L10,18.5 L10,37 C10,38.0422531 10.8884586,38.9204984 12.0412249,38.9948973 L12.2,39 L37.8,39 C39.0289368,39 40,38.0896282 40,37 L40,37 L40,18.5 Z M17,32 L17,35 L14,35 L14,32 L17,32 Z M22,32 L22,35 L19,35 L19,32 L22,32 Z M27,32 L27,35 L24,35 L24,32 L27,32 Z M32,32 L32,35 L29,35 L29,32 L32,32 Z M17,27 L17,30 L14,30 L14,27 L17,27 Z M22,27 L22,30 L19,30 L19,27 L22,27 Z M27,27 L27,30 L24,30 L24,27 L27,27 Z M32,27 L32,30 L29,30 L29,27 L32,27 Z M37,27 L37,30 L34,30 L34,27 L37,27 Z M22,22 L22,25 L19,25 L19,22 L22,22 Z M27,22 L27,25 L24,25 L24,22 L27,22 Z M32,22 L32,25 L29,25 L29,22 L32,22 Z M37,22 L37,25 L34,25 L34,22 L37,22 Z M17,12 L12.2,12 C10.9710632,12 10,12.9103718 10,14 L10,14 L10,16.5 L40,16.5 L40,14 C40,12.9577469 39.1115414,12.0795016 37.9587751,12.0051027 L37.8,12 L33,12 L33,13.5 C33,14.0522847 32.5522847,14.5 32,14.5 C31.4871642,14.5 31.0644928,14.1139598 31.0067277,13.6166211 L31,13.5 L31,12 L19,12 L19,13.5 C19,14.0522847 18.5522847,14.5 18,14.5 C17.4871642,14.5 17.0644928,14.1139598 17.0067277,13.6166211 L17,13.5 L17,12 Z" id="Combined-Shape" fill="#000000" fill-rule="nonzero"></path>
    </g>
</svg>