<?xml version="1.0" encoding="UTF-8"?>
<svg width="48px" height="48px" viewBox="0 0 48 48" version="1.1" xmlns="http://www.w3.org/2000/svg" xmlns:xlink="http://www.w3.org/1999/xlink">
    <title>icon_header_mypage</title>
    <g id="icon_header_mypage" stroke="none" stroke-width="1" fill="none" fill-rule="evenodd">
        <path d="M24,6 C28.9705627,6 33,10.0294373 33,15 C33,18.1837844 31.3468184,20.9814475 28.8520427,22.5814018 C34.0576669,24.1926615 37.8643166,28.9886985 37.9964496,34.6931438 L38,35 L38,39 C38,40.5976809 36.75108,41.9036609 35.1762728,41.9949073 L35,42 L18.9184631,42 L18.9184631,40 L35,40 C35.5128358,40 35.9355072,39.6139598 35.9932723,39.1166211 L36,39 L36,35 C36,29.0212984 31.2302364,24.1566348 25.2884075,24.0037074 L25,24 L23,24 C17.0212984,24 12.1566348,28.7697636 12.0037074,34.7115925 L12,35 L12,41 L10,41 L10,35 C10,29.1615466 13.8488242,24.2220342 19.1476605,22.580275 C16.6527363,20.9806939 15,18.1833556 15,15 C15,10.0294373 19.0294373,6 24,6 Z M24,8 C20.1340068,8 17,11.1340068 17,15 C17,18.8659932 20.1340068,22 24,22 C27.8659932,22 31,18.8659932 31,15 C31,11.1340068 27.8659932,8 24,8 Z" id="Combined-Shape" fill="#000000" fill-rule="nonzero"></path>
    </g>
</svg>