<?xml version="1.0" encoding="UTF-8"?>
<svg width="48px" height="48px" viewBox="0 0 48 48" version="1.1" xmlns="http://www.w3.org/2000/svg" xmlns:xlink="http://www.w3.org/1999/xlink">
    <title>icon_header_book</title>
    <g id="icon_header_book" stroke="none" stroke-width="1" fill="none" fill-rule="evenodd">
        <path d="M37.8,10 C40.1056856,10 42,11.7759197 42,14 L42,14 L42,37 C42,39.2240803 40.1056856,41 37.8,41 L37.8,41 L12.2,41 C9.89431438,41 8,39.2240803 8,37 L8,37 L8,14 C8,11.7759197 9.89431438,10 12.2,10 L12.2,10 Z M40,18.5 L10,18.5 L10,37 C10,38.0422531 10.8884586,38.9204984 12.0412249,38.9948973 L12.2,39 L37.8,39 C39.0289368,39 40,38.0896282 40,37 L40,37 L40,18.5 Z M33.4543468,22.3541389 C33.8141362,22.7153161 33.8407737,23.2825995 33.5349942,23.6743028 L33.4516244,23.7683498 L23.4510446,33.7305004 C23.0804513,34.0996695 22.4953287,34.1167725 22.1047515,33.7901102 L22.0113969,33.7012876 L16.4377885,27.6792539 C16.062647,27.2739303 16.0871144,26.6412382 16.492438,26.2660966 C16.8665829,25.9198121 17.4344618,25.9140228 17.8146729,26.2339792 L17.9055952,26.3207461 L22.774,31.581 L32.0401359,22.3514164 C32.4314112,21.9616446 33.064575,21.9628635 33.4543468,22.3541389 Z M37.8,12 L12.2,12 C10.9710632,12 10,12.9103718 10,14 L10,14 L10,16.5 L40,16.5 L40,14 C40,12.9577469 39.1115414,12.0795016 37.9587751,12.0051027 L37.8,12 Z" id="Combined-Shape" fill="#000000" fill-rule="nonzero"></path>
    </g>
</svg>