<?xml version="1.0" encoding="UTF-8"?>
<svg width="24px" height="24px" viewBox="0 0 24 24" version="1.1" xmlns="http://www.w3.org/2000/svg" xmlns:xlink="http://www.w3.org/1999/xlink">
    <title>Artboard</title>
    <g id="Artboard" stroke="none" stroke-width="1" fill="none" fill-rule="evenodd">
        <g id="icon_global" fill="#FFFFFF" fill-rule="nonzero">
            <path d="M11.9984185,24 C5.57588597,23.9917848 0.295899255,18.9328463 0.0127698688,12.5161336 L0,12.5161336 L0,11.4832092 L0.0127698688,11.4832092 C0.295312231,4.92879686 5.78884175,-0.183773966 12.3461956,0.00506703332 C18.9035495,0.193908032 24.0937908,5.61415387 23.9987144,12.1739649 C23.903638,18.7337759 18.5584905,24.0013043 11.9984185,24 L11.9984185,24 L11.9984185,24 Z M12.5159738,22.9152411 C14.0656349,22.614754 15.4229969,20.9553139 16.3026155,18.5296318 C15.0570138,18.2644763 13.7891917,18.117338 12.5159738,18.0901694 L12.5159738,22.9152411 Z M7.69647506,18.5296318 C8.57609367,20.9553139 9.93195328,22.6109979 11.4823656,22.9152411 L11.4823656,18.0901694 C10.209163,18.116966 8.94132938,18.2638542 7.69572389,18.5288806 L7.69647506,18.5296318 Z M16.7157583,20.2086035 C16.3208933,21.0478136 15.7986733,21.8209321 15.1675995,22.5005689 C16.909441,21.9746094 18.4929492,21.0232549 19.7752686,19.7323314 C18.9865615,19.3301998 18.1587005,19.0100088 17.3046746,18.7767824 C17.1353236,19.2645683 16.9384518,19.7423584 16.7150071,20.2078523 L16.7157583,20.2086035 Z M4.22382191,19.7323314 C5.50577217,21.023349 7.08906431,21.9747288 8.83073988,22.5005689 C8.1996953,21.8210678 7.67770445,21.0479134 7.28333225,20.2086035 C7.06018177,19.7429786 6.86331688,19.2652052 6.69366477,18.7775336 C5.83967957,19.010228 5.01181524,19.3299168 4.22307074,19.7315802 L4.22382191,19.7323314 Z M17.6231702,17.7791652 C18.6211852,18.0521533 19.5841235,18.4401268 20.4926348,18.9352894 C21.9825313,17.1161364 22.8451145,14.8644207 22.9519613,12.5153824 L18.3758412,12.5153824 C18.347992,14.294756 18.0948357,16.0634323 17.622419,17.7791652 L17.6231702,17.7791652 Z M3.50495341,18.9345382 C4.41357661,18.4392425 5.37680904,18.0515042 6.37516922,17.7791652 C5.90384599,16.0632653 5.65145312,14.2946331 5.62400047,12.5153824 L1.04788041,12.5153824 C1.15424538,14.8637672 2.01572671,17.1150938 3.50420224,18.9345382 L3.50495341,18.9345382 Z M12.5189785,17.0564938 C13.9001382,17.0812227 15.2756701,17.2394645 16.6263692,17.5290097 C17.078901,15.8954105 17.3224696,14.211017 17.3512471,12.5161336 L12.5189785,12.5161336 L12.5189785,17.0564938 Z M7.37797951,17.5290097 C8.72861744,17.2390924 10.1041857,17.0808465 11.4853703,17.0564938 L11.4853703,12.5168848 L6.65235049,12.5168848 C6.68041253,14.211125 6.92296761,15.8949861 7.37422367,17.5282585 L7.37797951,17.5290097 Z M17.626926,6.22092877 C18.0978737,7.93511481 18.3502638,9.70196052 18.3780948,11.4794531 L22.9542148,11.4794531 C22.8469969,9.13120973 21.9850218,6.88023302 20.4963906,5.06104854 C19.5870428,5.55816636 18.6227771,5.94742735 17.6231702,6.22092877 L17.626926,6.22092877 Z M12.5189785,6.94360025 L12.5189785,11.4832092 L17.3512471,11.4832092 C17.3223151,9.78809132 17.0787499,8.10346885 16.6263692,6.46958184 C15.2745484,6.76022685 13.897712,6.91897717 12.5152226,6.94360025 L12.5189785,6.94360025 Z M6.65235049,11.4832092 L11.4853703,11.4832092 L11.4853703,6.94360025 C10.1041637,6.91834908 8.72863384,6.7596044 7.37797951,6.46958184 C6.92406706,8.10301493 6.67898614,9.78739358 6.64859465,11.482458 L6.65235049,11.4832092 Z M1.04938275,11.4832092 L5.6255028,11.4832092 C5.65367832,9.70574383 5.90606222,7.93894125 6.37667156,6.22468485 C5.37792551,5.95307634 4.41419761,5.56609783 3.50495341,5.07156559 C2.01695729,6.88833223 1.1544968,9.1365662 1.04562691,11.482458 L1.04938275,11.4832092 Z M12.5189785,5.90992461 C13.7919989,5.88230824 15.0595766,5.73466605 16.304869,5.46895979 C15.4252504,3.04327764 14.0686396,1.38834491 12.5189785,1.08410172 L12.5189785,5.90992461 Z M7.69947974,5.46895979 C8.94481986,5.7343756 10.2123701,5.88201459 11.4853703,5.90992461 L11.4853703,1.08410172 C9.93120211,1.38759369 8.57534251,3.04252642 7.69572389,5.46895979 L7.69947974,5.46895979 Z M16.718763,3.79073931 C16.9410931,4.25525242 17.1374506,4.73175768 17.3069281,5.21805305 C18.1612031,4.98583466 18.9893393,4.66638985 19.7782733,4.26475772 C18.4959976,2.97361145 16.9124958,2.02200266 15.1706042,1.49576905 C15.8006044,2.17658233 16.3215593,2.95071703 16.7150071,3.79073931 L16.718763,3.79073931 Z M4.22607541,4.26776259 C5.01497817,4.66887889 5.84281144,4.98830393 6.69666945,5.22105793 C6.86681987,4.73480049 7.06367504,4.25830467 7.28633692,3.79374418 C7.68070913,2.95443423 8.20269998,2.18127987 8.83374456,1.50177879 C7.09088718,2.02636642 5.5060711,2.97669849 4.22231957,4.26701137 L4.22607541,4.26776259 Z" id="Color_Overlay"></path>
        </g>
    </g>
</svg>